# xmcd
#
# Track frame offsets: 
#        150
#        8066
#        28701
#        50218
#        70619
#        94626
#        137770
#        156363
#        180887
#        193617
#        217630
#        240208
#
# Disc length: 3486 seconds
#
# Revision: 0
# Processed by: cddbd v1.5.2PL0 Copyright (c) Steve Scherf et al.
# Submitted via: ExactAudioCopyFreeDBPlugin 1.0
#
DISCID=8f0d9c0c
DTITLE=田中義人 - The 12-Year Experiment
DYEAR=2013
DGENRE=Funk
TTITLE0=Re Start (Intro)
TTITLE1=Funkazool
TTITLE2=Boogie On Guitarman
TTITLE3=Love Enough
TTITLE4=Endorphin Dance
TTITLE5=Electrodelic Land-If I Was A Rock Star
TTITLE6=Back To 1984 Timeline
TTITLE7=Get Into The Groove
TTITLE8=Blackbird Files
TTITLE9=Skinny Dipper
TTITLE10=End Roll (Outro)
TTITLE11=Dance Dance
EXTD=
EXTT0=
EXTT1=
EXTT2=
EXTT3=
EXTT4=
EXTT5=
EXTT6=
EXTT7=
EXTT8=
EXTT9=
EXTT10=
EXTT11=
PLAYORDER=
